<?xml version="1.0" standalone="no"?>
<!DOCTYPE svg PUBLIC "-//W3C//DTD SVG 20010904//EN"
 "http://www.w3.org/TR/2001/REC-SVG-20010904/DTD/svg10.dtd">
<svg version="1.0" xmlns="http://www.w3.org/2000/svg"
 width="505.000000pt" height="143.000000pt" viewBox="0 0 505.000000 143.000000"
 preserveAspectRatio="xMidYMid meet">

<g transform="translate(0.000000,143.000000) scale(0.100000,-0.100000)"
fill="#000000" stroke="none">
<path d="M200 1040 l0 -200 69 0 c113 0 185 40 220 120 35 82 22 157 -40 219
-45 45 -93 61 -183 61 l-66 0 0 -200z m164 111 c16 -11 35 -30 42 -43 20 -35
17 -108 -5 -142 -33 -49 -92 -71 -119 -44 -16 16 -16 220 0 236 17 17 49 15
82 -7z"/>
<path d="M2220 1040 l0 -200 74 0 c105 0 169 34 209 110 24 46 28 63 24 106
-12 117 -97 184 -234 184 l-73 0 0 -200z m160 115 c38 -19 60 -63 60 -115 0
-71 -49 -130 -108 -130 -35 0 -42 20 -42 130 0 110 7 130 42 130 11 0 32 -7
48 -15z"/>
<path d="M2957 1174 c-4 -4 -7 -22 -7 -39 0 -19 -8 -39 -20 -50 -11 -10 -20
-23 -20 -30 0 -7 9 -20 20 -30 16 -14 20 -31 20 -79 0 -83 17 -106 75 -106 24
0 47 4 50 10 9 14 -12 48 -35 55 -17 5 -20 15 -20 61 0 48 3 56 25 66 32 14
32 44 1 52 -21 5 -25 13 -28 49 -3 37 -6 42 -28 45 -14 2 -29 0 -33 -4z"/>
<path d="M4076 1129 c-11 -11 -27 -19 -35 -19 -9 0 -36 -20 -61 -45 -25 -24
-51 -44 -58 -45 -7 0 -18 -12 -25 -27 -6 -16 -19 -34 -28 -40 -9 -7 -20 -29
-23 -49 -4 -20 -12 -48 -18 -63 -6 -14 -11 -47 -10 -73 0 -27 -4 -48 -9 -48
-14 0 -11 -21 4 -34 8 -6 21 -32 31 -57 9 -25 30 -59 46 -76 19 -19 26 -33 19
-35 -15 -5 39 -58 58 -58 7 0 13 -7 13 -15 0 -9 26 -28 65 -46 56 -25 78 -30
158 -32 82 -2 98 1 148 25 31 14 69 38 84 52 15 14 33 26 40 26 17 0 50 40 65
80 8 19 17 37 21 40 21 16 40 79 44 143 6 117 -25 200 -111 292 -17 18 -33 39
-36 47 -3 7 -28 19 -56 27 -28 7 -53 18 -55 25 -8 19 -203 32 -223 15 -10 -9
-18 -9 -22 -2 -5 6 -14 3 -26 -8z"/>
<path d="M619 1070 c-77 -41 -89 -142 -23 -200 30 -26 43 -30 90 -30 35 0 67
6 85 17 33 20 35 26 14 43 -12 10 -21 10 -41 1 -38 -17 -79 -13 -99 9 -34 37
-14 50 81 50 l87 0 -6 36 c-7 44 -23 63 -64 81 -44 18 -81 16 -124 -7z m106
-36 c25 -25 13 -39 -38 -42 -41 -3 -47 -1 -47 17 0 37 56 54 85 25z"/>
<path d="M996 1083 c-4 -4 -33 -8 -65 -8 l-56 0 0 -115 0 -115 33 -3 32 -3 0
74 c0 79 14 109 55 121 42 11 60 -18 65 -107 l5 -82 33 -3 32 -3 0 95 c0 84
-3 98 -23 121 -23 27 -94 45 -111 28z"/>
<path d="M1584 1076 c-89 -39 -101 -167 -20 -220 32 -20 117 -21 156 -1 34 17
37 27 15 45 -12 10 -21 10 -44 0 -56 -23 -114 2 -98 44 5 13 22 16 86 16 44 0
82 4 86 10 11 18 -24 80 -57 100 -38 23 -80 25 -124 6z m91 -40 c30 -22 12
-46 -35 -46 -47 0 -65 24 -35 46 24 18 46 18 70 0z"/>
<path d="M1941 1074 c-19 -13 -27 -14 -45 -4 -13 6 -34 10 -47 8 -24 -3 -24
-5 -24 -111 0 -60 3 -113 6 -119 3 -5 19 -8 35 -6 29 3 29 3 32 81 3 69 5 79
27 93 15 10 34 14 50 10 18 -5 27 -1 35 15 24 45 -21 66 -69 33z"/>
<path d="M2645 1081 c-11 -5 -31 -21 -45 -36 -21 -22 -25 -37 -25 -85 0 -51 4
-63 29 -89 24 -25 38 -31 72 -31 24 0 54 4 68 10 16 6 27 6 31 0 4 -6 22 -10
41 -10 l34 0 0 120 0 120 -57 -1 c-32 -1 -74 2 -93 5 -19 3 -44 2 -55 -3z
m123 -78 c34 -47 -12 -121 -68 -108 -80 19 -58 147 24 131 17 -3 37 -14 44
-23z"/>
<path d="M3170 1068 c-68 -46 -77 -140 -19 -198 25 -24 39 -30 75 -30 25 0 55
5 66 11 14 8 23 8 31 0 12 -12 67 -15 67 -3 5 104 5 214 0 222 -3 6 -28 9 -56
9 -27 -1 -67 1 -89 5 -33 6 -46 4 -75 -16z m131 -56 c27 -23 30 -75 6 -99 -24
-24 -76 -21 -99 6 -25 31 -23 57 7 86 29 30 55 32 86 7z"/>
<path d="M1180 1072 c0 -5 27 -58 59 -118 53 -96 62 -109 86 -109 23 0 32 11
72 85 24 47 51 95 59 107 22 35 17 43 -24 43 -37 0 -39 -2 -66 -60 -15 -33
-34 -60 -42 -60 -7 0 -26 26 -41 58 -26 53 -31 57 -65 60 -21 2 -38 -1 -38 -6z"/>
<path d="M2297 704 c-9 -9 -9 -426 -1 -448 10 -26 39 -37 68 -26 32 12 34 37
4 42 -23 3 -23 4 -28 218 -4 183 -7 215 -20 218 -9 1 -19 0 -23 -4z"/>
<path d="M2487 704 c-4 -4 -7 -104 -7 -221 0 -212 0 -214 24 -238 19 -19 30
-22 52 -16 37 10 42 29 10 41 -14 5 -27 11 -28 12 -1 2 -4 97 -7 213 -5 179
-8 210 -21 213 -9 1 -19 0 -23 -4z"/>
<path d="M235 637 c-47 -22 -70 -54 -70 -97 0 -49 29 -82 110 -122 66 -34 84
-52 85 -85 0 -56 -76 -81 -142 -47 -28 14 -32 14 -46 0 -15 -14 -15 -18 -1
-31 8 -8 40 -21 71 -27 50 -10 61 -10 98 7 53 24 70 49 70 101 0 53 -31 93
-92 119 -73 32 -98 53 -98 84 0 55 67 79 129 46 26 -13 30 -13 42 1 33 41 -90
81 -156 51z"/>
<path d="M536 595 c-3 -9 -6 -25 -6 -36 0 -10 -9 -24 -20 -31 -23 -15 -26 -34
-6 -45 10 -6 15 -37 18 -114 2 -70 8 -112 17 -123 18 -22 104 -22 125 0 24 24
10 35 -36 28 -53 -9 -58 0 -58 108 0 94 2 98 60 108 52 8 46 34 -10 40 -42 5
-45 7 -50 39 -5 38 -24 51 -34 26z"/>
<path d="M1737 604 c-4 -4 -7 -18 -7 -31 0 -13 -12 -35 -27 -49 l-27 -25 22
-15 c20 -14 22 -24 22 -113 0 -117 13 -143 72 -143 42 0 78 17 78 36 0 11 -10
13 -41 9 -54 -8 -59 2 -59 108 0 95 7 109 58 109 26 0 33 4 30 18 -2 12 -16
19 -43 22 -37 5 -40 8 -45 39 -5 34 -19 48 -33 35z"/>
<path d="M2025 525 c-22 -8 -41 -15 -42 -15 -2 0 -12 -18 -23 -41 -41 -80 -23
-174 43 -223 37 -28 121 -29 161 -3 42 28 20 42 -41 27 -57 -14 -94 -4 -118
34 -31 46 -18 58 62 60 80 1 107 17 118 67 16 73 -74 125 -160 94z m105 -50
c7 -8 10 -25 6 -39 -12 -48 -127 -59 -142 -13 -15 48 102 93 136 52z"/>
<path d="M2754 529 c-70 -20 -101 -81 -92 -181 5 -43 11 -57 41 -84 20 -19 52
-36 73 -40 48 -9 117 13 122 40 3 16 0 18 -25 11 -15 -4 -48 -8 -72 -9 -36 0
-47 4 -68 28 -13 16 -23 37 -21 48 3 18 11 21 77 22 67 1 75 4 97 29 26 31 29
43 14 81 -17 46 -85 72 -146 55z m98 -64 c10 -22 9 -29 -10 -48 -39 -38 -131
-27 -132 16 0 4 11 19 25 32 35 36 101 35 117 0z"/>
<path d="M813 520 c-12 -5 -33 -26 -47 -47 -54 -78 -27 -194 54 -236 40 -21
109 -17 147 9 88 57 83 225 -7 271 -28 14 -114 16 -147 3z m134 -54 c25 -22
28 -30 28 -91 0 -58 -3 -69 -24 -86 -35 -29 -65 -33 -104 -14 -55 26 -75 102
-42 165 29 56 94 67 142 26z"/>
<path d="M1218 510 c-15 -24 -36 -26 -44 -5 -4 8 -15 15 -26 15 -18 0 -20 -5
-14 -31 3 -17 6 -83 6 -145 0 -105 1 -114 19 -114 25 0 28 10 30 110 2 100 18
132 72 140 26 4 35 10 37 28 3 19 -1 22 -32 22 -25 0 -40 -6 -48 -20z"/>
<path d="M1357 522 c-3 -4 19 -68 49 -142 29 -74 53 -144 54 -156 0 -11 -18
-44 -40 -74 -29 -39 -37 -57 -29 -66 16 -20 35 -7 72 49 51 76 90 160 126 264
36 107 37 119 14 127 -25 10 -32 -3 -59 -110 -27 -105 -43 -135 -61 -112 -5 7
-24 59 -42 115 -30 91 -43 113 -71 113 -5 0 -11 -3 -13 -8z"/>
<path d="M3090 510 c-13 -24 -36 -26 -48 -3 -5 9 -16 14 -23 11 -11 -4 -13
-34 -11 -147 3 -140 3 -142 25 -139 21 3 22 9 27 104 6 117 20 144 75 144 32
0 52 21 39 41 -11 18 -73 10 -84 -11z"/>
<path d="M3265 505 c-51 -50 -25 -107 65 -146 50 -21 66 -43 54 -72 -9 -25
-41 -30 -90 -17 -25 7 -48 10 -51 6 -13 -12 13 -41 45 -50 70 -20 152 25 152
84 0 37 -17 56 -79 88 -65 33 -81 53 -61 77 12 14 25 16 67 11 48 -6 53 -4 53
13 0 24 -19 31 -81 31 -40 0 -55 -5 -74 -25z"/>
</g>
</svg>
